<?xml version="1.0" standalone="no"?>
<!DOCTYPE svg PUBLIC "-//W3C//DTD SVG 20010904//EN"
 "http://www.w3.org/TR/2001/REC-SVG-20010904/DTD/svg10.dtd">
<svg version="1.0" xmlns="http://www.w3.org/2000/svg"
 width="512.000000pt" height="512.000000pt" viewBox="0 0 512.000000 512.000000"
 preserveAspectRatio="xMidYMid meet">
<metadata>
Created by potrace 1.14, written by Peter Selinger 2001-2017
</metadata>
<g transform="translate(0.000000,512.000000) scale(0.100000,-0.100000)"
fill="#000000" stroke="none">
<path d="M491 4964 c-62 -18 -96 -41 -150 -100 -194 -212 -257 -718 -135
-1091 35 -107 79 -187 141 -254 79 -85 124 -101 308 -109 83 -4 142 -7 131 -8
-38 -4 -139 -67 -184 -117 -99 -108 -172 -325 -172 -510 0 -132 53 -336 114
-439 40 -67 114 -136 180 -167 l61 -29 624 0 624 0 -61 31 c-73 36 -131 98
-178 191 -118 235 -120 572 -4 813 47 98 113 168 195 207 l60 28 -435 1 c-245
1 -420 5 -401 9 19 5 757 9 1640 9 1430 1 1607 3 1628 17 33 21 63 73 63 110
0 41 -37 95 -80 116 -33 17 -135 18 -1701 18 l-1666 0 -34 23 c-74 50 -128
218 -136 427 -12 283 48 486 158 542 32 17 133 18 1694 18 1639 0 1660 0 1693
20 69 42 90 120 49 181 -49 74 129 67 -2041 71 -1377 2 -1959 0 -1985 -8z"/>
<path d="M610 2109 c-131 -59 -238 -268 -292 -568 -30 -168 -37 -518 -13 -702
44 -348 147 -580 294 -667 l46 -27 545 0 c300 0 1255 1 2124 3 l1578 2 40 40
c40 40 40 41 36 101 -4 55 -8 65 -39 94 l-35 32 -154 6 c-84 4 -841 7 -1683 7
l-1529 0 -38 38 c-27 27 -44 57 -59 107 -21 65 -48 177 -57 235 -19 115 -25
431 -11 560 13 113 17 137 41 233 27 106 62 180 101 217 l27 25 1671 5 c1419
4 1676 7 1700 19 87 45 90 189 4 241 -31 20 -67 20 -2142 20 -2102 0 -2110 -1
-2155 -21z"/>
</g>
</svg>
